<svg xmlns="http://www.w3.org/2000/svg" viewBox="0 0 400 400" width="100%" height="100%">
  <!-- Outer Card Background (matching the exact dark border color in the uploaded image) -->
  <rect width="400" height="400" fill="#192026" rx="16" />
  
  <!-- Outer Slate Border -->
  <rect x="1" y="1" width="398" height="398" fill="none" stroke="#242E38" stroke-width="2" rx="15" />

  <defs>
    <!-- Clip path to round the inner white card and its bottom bar perfectly -->
    <clipPath id="card-clip">
      <rect x="25" y="25" width="350" height="350" rx="24" />
    </clipPath>
  </defs>

  <!-- Inner White Card -->
  <rect x="25" y="25" width="350" height="350" fill="#FFFFFF" rx="24" />

  <!-- Bottom Dark Bar inside the White Card (clipped to rounded bottom corners) -->
  <rect x="25" y="339" width="350" height="36" fill="#192026" clip-path="url(#card-clip)" />
  
  <!-- Content inside the bottom dark bar -->
  <text x="200" y="360" fill="#E1E7EC" font-family="'Inter', system-ui, sans-serif" font-size="9" font-weight="800" letter-spacing="1.5" text-anchor="middle" opacity="0.9">eSewa Merchant Partner</text>
  <rect x="160" y="348" width="80" height="1" fill="#FFFFFF" opacity="0.15" />

  <!-- Green Brand Dot accent indicators -->
  <circle cx="47" cy="47" r="4" fill="#60BB46" />
  <circle cx="353" cy="47" r="4" fill="#60BB46" />

  <!-- QR Code Modules -->
  <g fill="#192026" shape-rendering="crispEdges">
    <rect x="70.000" y="60.000" width="8.966" height="8.966" />
    <rect x="78.966" y="60.000" width="8.966" height="8.966" />
    <rect x="87.931" y="60.000" width="8.966" height="8.966" />
    <rect x="96.897" y="60.000" width="8.966" height="8.966" />
    <rect x="105.862" y="60.000" width="8.966" height="8.966" />
    <rect x="114.828" y="60.000" width="8.966" height="8.966" />
    <rect x="123.793" y="60.000" width="8.966" height="8.966" />
    <rect x="150.690" y="60.000" width="8.966" height="8.966" />
    <rect x="168.621" y="60.000" width="8.966" height="8.966" />
    <rect x="186.552" y="60.000" width="8.966" height="8.966" />
    <rect x="213.448" y="60.000" width="8.966" height="8.966" />
    <rect x="222.414" y="60.000" width="8.966" height="8.966" />
    <rect x="249.310" y="60.000" width="8.966" height="8.966" />
    <rect x="267.241" y="60.000" width="8.966" height="8.966" />
    <rect x="276.207" y="60.000" width="8.966" height="8.966" />
    <rect x="285.172" y="60.000" width="8.966" height="8.966" />
    <rect x="294.138" y="60.000" width="8.966" height="8.966" />
    <rect x="303.103" y="60.000" width="8.966" height="8.966" />
    <rect x="312.069" y="60.000" width="8.966" height="8.966" />
    <rect x="321.034" y="60.000" width="8.966" height="8.966" />
    <rect x="70.000" y="68.966" width="8.966" height="8.966" />
    <rect x="123.793" y="68.966" width="8.966" height="8.966" />
    <rect x="141.724" y="68.966" width="8.966" height="8.966" />
    <rect x="159.655" y="68.966" width="8.966" height="8.966" />
    <rect x="168.621" y="68.966" width="8.966" height="8.966" />
    <rect x="195.517" y="68.966" width="8.966" height="8.966" />
    <rect x="204.483" y="68.966" width="8.966" height="8.966" />
    <rect x="222.414" y="68.966" width="8.966" height="8.966" />
    <rect x="231.379" y="68.966" width="8.966" height="8.966" />
    <rect x="249.310" y="68.966" width="8.966" height="8.966" />
    <rect x="267.241" y="68.966" width="8.966" height="8.966" />
    <rect x="321.034" y="68.966" width="8.966" height="8.966" />
    <rect x="70.000" y="77.931" width="8.966" height="8.966" />
    <rect x="87.931" y="77.931" width="8.966" height="8.966" />
    <rect x="96.897" y="77.931" width="8.966" height="8.966" />
    <rect x="105.862" y="77.931" width="8.966" height="8.966" />
    <rect x="123.793" y="77.931" width="8.966" height="8.966" />
    <rect x="159.655" y="77.931" width="8.966" height="8.966" />
    <rect x="177.586" y="77.931" width="8.966" height="8.966" />
    <rect x="195.517" y="77.931" width="8.966" height="8.966" />
    <rect x="222.414" y="77.931" width="8.966" height="8.966" />
    <rect x="231.379" y="77.931" width="8.966" height="8.966" />
    <rect x="240.345" y="77.931" width="8.966" height="8.966" />
    <rect x="267.241" y="77.931" width="8.966" height="8.966" />
    <rect x="285.172" y="77.931" width="8.966" height="8.966" />
    <rect x="294.138" y="77.931" width="8.966" height="8.966" />
    <rect x="303.103" y="77.931" width="8.966" height="8.966" />
    <rect x="321.034" y="77.931" width="8.966" height="8.966" />
    <rect x="70.000" y="86.897" width="8.966" height="8.966" />
    <rect x="87.931" y="86.897" width="8.966" height="8.966" />
    <rect x="96.897" y="86.897" width="8.966" height="8.966" />
    <rect x="105.862" y="86.897" width="8.966" height="8.966" />
    <rect x="123.793" y="86.897" width="8.966" height="8.966" />
    <rect x="141.724" y="86.897" width="8.966" height="8.966" />
    <rect x="150.690" y="86.897" width="8.966" height="8.966" />
    <rect x="159.655" y="86.897" width="8.966" height="8.966" />
    <rect x="186.552" y="86.897" width="8.966" height="8.966" />
    <rect x="213.448" y="86.897" width="8.966" height="8.966" />
    <rect x="267.241" y="86.897" width="8.966" height="8.966" />
    <rect x="285.172" y="86.897" width="8.966" height="8.966" />
    <rect x="294.138" y="86.897" width="8.966" height="8.966" />
    <rect x="303.103" y="86.897" width="8.966" height="8.966" />
    <rect x="321.034" y="86.897" width="8.966" height="8.966" />
    <rect x="70.000" y="95.862" width="8.966" height="8.966" />
    <rect x="87.931" y="95.862" width="8.966" height="8.966" />
    <rect x="96.897" y="95.862" width="8.966" height="8.966" />
    <rect x="105.862" y="95.862" width="8.966" height="8.966" />
    <rect x="123.793" y="95.862" width="8.966" height="8.966" />
    <rect x="159.655" y="95.862" width="8.966" height="8.966" />
    <rect x="168.621" y="95.862" width="8.966" height="8.966" />
    <rect x="186.552" y="95.862" width="8.966" height="8.966" />
    <rect x="195.517" y="95.862" width="8.966" height="8.966" />
    <rect x="204.483" y="95.862" width="8.966" height="8.966" />
    <rect x="222.414" y="95.862" width="8.966" height="8.966" />
    <rect x="240.345" y="95.862" width="8.966" height="8.966" />
    <rect x="249.310" y="95.862" width="8.966" height="8.966" />
    <rect x="267.241" y="95.862" width="8.966" height="8.966" />
    <rect x="285.172" y="95.862" width="8.966" height="8.966" />
    <rect x="294.138" y="95.862" width="8.966" height="8.966" />
    <rect x="303.103" y="95.862" width="8.966" height="8.966" />
    <rect x="321.034" y="95.862" width="8.966" height="8.966" />
    <rect x="70.000" y="104.828" width="8.966" height="8.966" />
    <rect x="123.793" y="104.828" width="8.966" height="8.966" />
    <rect x="141.724" y="104.828" width="8.966" height="8.966" />
    <rect x="150.690" y="104.828" width="8.966" height="8.966" />
    <rect x="168.621" y="104.828" width="8.966" height="8.966" />
    <rect x="195.517" y="104.828" width="8.966" height="8.966" />
    <rect x="222.414" y="104.828" width="8.966" height="8.966" />
    <rect x="231.379" y="104.828" width="8.966" height="8.966" />
    <rect x="258.276" y="104.828" width="8.966" height="8.966" />
    <rect x="267.241" y="104.828" width="8.966" height="8.966" />
    <rect x="321.034" y="104.828" width="8.966" height="8.966" />
    <rect x="70.000" y="113.793" width="8.966" height="8.966" />
    <rect x="78.966" y="113.793" width="8.966" height="8.966" />
    <rect x="87.931" y="113.793" width="8.966" height="8.966" />
    <rect x="96.897" y="113.793" width="8.966" height="8.966" />
    <rect x="105.862" y="113.793" width="8.966" height="8.966" />
    <rect x="114.828" y="113.793" width="8.966" height="8.966" />
    <rect x="123.793" y="113.793" width="8.966" height="8.966" />
    <rect x="141.724" y="113.793" width="8.966" height="8.966" />
    <rect x="159.655" y="113.793" width="8.966" height="8.966" />
    <rect x="177.586" y="113.793" width="8.966" height="8.966" />
    <rect x="195.517" y="113.793" width="8.966" height="8.966" />
    <rect x="213.448" y="113.793" width="8.966" height="8.966" />
    <rect x="231.379" y="113.793" width="8.966" height="8.966" />
    <rect x="249.310" y="113.793" width="8.966" height="8.966" />
    <rect x="267.241" y="113.793" width="8.966" height="8.966" />
    <rect x="276.207" y="113.793" width="8.966" height="8.966" />
    <rect x="285.172" y="113.793" width="8.966" height="8.966" />
    <rect x="294.138" y="113.793" width="8.966" height="8.966" />
    <rect x="303.103" y="113.793" width="8.966" height="8.966" />
    <rect x="312.069" y="113.793" width="8.966" height="8.966" />
    <rect x="321.034" y="113.793" width="8.966" height="8.966" />
    <rect x="141.724" y="122.759" width="8.966" height="8.966" />
    <rect x="168.621" y="122.759" width="8.966" height="8.966" />
    <rect x="186.552" y="122.759" width="8.966" height="8.966" />
    <rect x="195.517" y="122.759" width="8.966" height="8.966" />
    <rect x="204.483" y="122.759" width="8.966" height="8.966" />
    <rect x="213.448" y="122.759" width="8.966" height="8.966" />
    <rect x="231.379" y="122.759" width="8.966" height="8.966" />
    <rect x="240.345" y="122.759" width="8.966" height="8.966" />
    <rect x="70.000" y="131.724" width="8.966" height="8.966" />
    <rect x="78.966" y="131.724" width="8.966" height="8.966" />
    <rect x="96.897" y="131.724" width="8.966" height="8.966" />
    <rect x="105.862" y="131.724" width="8.966" height="8.966" />
    <rect x="114.828" y="131.724" width="8.966" height="8.966" />
    <rect x="123.793" y="131.724" width="8.966" height="8.966" />
    <rect x="132.759" y="131.724" width="8.966" height="8.966" />
    <rect x="141.724" y="131.724" width="8.966" height="8.966" />
    <rect x="150.690" y="131.724" width="8.966" height="8.966" />
    <rect x="159.655" y="131.724" width="8.966" height="8.966" />
    <rect x="177.586" y="131.724" width="8.966" height="8.966" />
    <rect x="213.448" y="131.724" width="8.966" height="8.966" />
    <rect x="222.414" y="131.724" width="8.966" height="8.966" />
    <rect x="258.276" y="131.724" width="8.966" height="8.966" />
    <rect x="267.241" y="131.724" width="8.966" height="8.966" />
    <rect x="276.207" y="131.724" width="8.966" height="8.966" />
    <rect x="294.138" y="131.724" width="8.966" height="8.966" />
    <rect x="303.103" y="131.724" width="8.966" height="8.966" />
    <rect x="312.069" y="131.724" width="8.966" height="8.966" />
    <rect x="87.931" y="140.690" width="8.966" height="8.966" />
    <rect x="105.862" y="140.690" width="8.966" height="8.966" />
    <rect x="114.828" y="140.690" width="8.966" height="8.966" />
    <rect x="159.655" y="140.690" width="8.966" height="8.966" />
    <rect x="168.621" y="140.690" width="8.966" height="8.966" />
    <rect x="177.586" y="140.690" width="8.966" height="8.966" />
    <rect x="195.517" y="140.690" width="8.966" height="8.966" />
    <rect x="213.448" y="140.690" width="8.966" height="8.966" />
    <rect x="222.414" y="140.690" width="8.966" height="8.966" />
    <rect x="240.345" y="140.690" width="8.966" height="8.966" />
    <rect x="249.310" y="140.690" width="8.966" height="8.966" />
    <rect x="258.276" y="140.690" width="8.966" height="8.966" />
    <rect x="285.172" y="140.690" width="8.966" height="8.966" />
    <rect x="294.138" y="140.690" width="8.966" height="8.966" />
    <rect x="312.069" y="140.690" width="8.966" height="8.966" />
    <rect x="70.000" y="149.655" width="8.966" height="8.966" />
    <rect x="87.931" y="149.655" width="8.966" height="8.966" />
    <rect x="114.828" y="149.655" width="8.966" height="8.966" />
    <rect x="132.759" y="149.655" width="8.966" height="8.966" />
    <rect x="141.724" y="149.655" width="8.966" height="8.966" />
    <rect x="159.655" y="149.655" width="8.966" height="8.966" />
    <rect x="186.552" y="149.655" width="8.966" height="8.966" />
    <rect x="195.517" y="149.655" width="8.966" height="8.966" />
    <rect x="204.483" y="149.655" width="8.966" height="8.966" />
    <rect x="231.379" y="149.655" width="8.966" height="8.966" />
    <rect x="258.276" y="149.655" width="8.966" height="8.966" />
    <rect x="267.241" y="149.655" width="8.966" height="8.966" />
    <rect x="303.103" y="149.655" width="8.966" height="8.966" />
    <rect x="312.069" y="149.655" width="8.966" height="8.966" />
    <rect x="321.034" y="149.655" width="8.966" height="8.966" />
    <rect x="70.000" y="158.621" width="8.966" height="8.966" />
    <rect x="78.966" y="158.621" width="8.966" height="8.966" />
    <rect x="96.897" y="158.621" width="8.966" height="8.966" />
    <rect x="105.862" y="158.621" width="8.966" height="8.966" />
    <rect x="132.759" y="158.621" width="8.966" height="8.966" />
    <rect x="177.586" y="158.621" width="8.966" height="8.966" />
    <rect x="186.552" y="158.621" width="8.966" height="8.966" />
    <rect x="204.483" y="158.621" width="8.966" height="8.966" />
    <rect x="213.448" y="158.621" width="8.966" height="8.966" />
    <rect x="231.379" y="158.621" width="8.966" height="8.966" />
    <rect x="240.345" y="158.621" width="8.966" height="8.966" />
    <rect x="249.310" y="158.621" width="8.966" height="8.966" />
    <rect x="267.241" y="158.621" width="8.966" height="8.966" />
    <rect x="276.207" y="158.621" width="8.966" height="8.966" />
    <rect x="285.172" y="158.621" width="8.966" height="8.966" />
    <rect x="321.034" y="158.621" width="8.966" height="8.966" />
    <rect x="78.966" y="167.586" width="8.966" height="8.966" />
    <rect x="87.931" y="167.586" width="8.966" height="8.966" />
    <rect x="96.897" y="167.586" width="8.966" height="8.966" />
    <rect x="123.793" y="167.586" width="8.966" height="8.966" />
    <rect x="132.759" y="167.586" width="8.966" height="8.966" />
    <rect x="141.724" y="167.586" width="8.966" height="8.966" />
    <rect x="168.621" y="167.586" width="8.966" height="8.966" />
    <rect x="177.586" y="167.586" width="8.966" height="8.966" />
    <rect x="231.379" y="167.586" width="8.966" height="8.966" />
    <rect x="240.345" y="167.586" width="8.966" height="8.966" />
    <rect x="267.241" y="167.586" width="8.966" height="8.966" />
    <rect x="294.138" y="167.586" width="8.966" height="8.966" />
    <rect x="312.069" y="167.586" width="8.966" height="8.966" />
    <rect x="96.897" y="176.552" width="8.966" height="8.966" />
    <rect x="105.862" y="176.552" width="8.966" height="8.966" />
    <rect x="114.828" y="176.552" width="8.966" height="8.966" />
    <rect x="132.759" y="176.552" width="8.966" height="8.966" />
    <rect x="159.655" y="176.552" width="8.966" height="8.966" />
    <rect x="168.621" y="176.552" width="8.966" height="8.966" />
    <rect x="186.552" y="176.552" width="8.966" height="8.966" />
    <rect x="204.483" y="176.552" width="8.966" height="8.966" />
    <rect x="213.448" y="176.552" width="8.966" height="8.966" />
    <rect x="222.414" y="176.552" width="8.966" height="8.966" />
    <rect x="249.310" y="176.552" width="8.966" height="8.966" />
    <rect x="258.276" y="176.552" width="8.966" height="8.966" />
    <rect x="267.241" y="176.552" width="8.966" height="8.966" />
    <rect x="276.207" y="176.552" width="8.966" height="8.966" />
    <rect x="285.172" y="176.552" width="8.966" height="8.966" />
    <rect x="312.069" y="176.552" width="8.966" height="8.966" />
    <rect x="321.034" y="176.552" width="8.966" height="8.966" />
    <rect x="70.000" y="185.517" width="8.966" height="8.966" />
    <rect x="78.966" y="185.517" width="8.966" height="8.966" />
    <rect x="87.931" y="185.517" width="8.966" height="8.966" />
    <rect x="96.897" y="185.517" width="8.966" height="8.966" />
    <rect x="105.862" y="185.517" width="8.966" height="8.966" />
    <rect x="141.724" y="185.517" width="8.966" height="8.966" />
    <rect x="150.690" y="185.517" width="8.966" height="8.966" />
    <rect x="168.621" y="185.517" width="8.966" height="8.966" />
    <rect x="177.586" y="185.517" width="8.966" height="8.966" />
    <rect x="195.517" y="185.517" width="8.966" height="8.966" />
    <rect x="213.448" y="185.517" width="8.966" height="8.966" />
    <rect x="231.379" y="185.517" width="8.966" height="8.966" />
    <rect x="240.345" y="185.517" width="8.966" height="8.966" />
    <rect x="258.276" y="185.517" width="8.966" height="8.966" />
    <rect x="285.172" y="185.517" width="8.966" height="8.966" />
    <rect x="303.103" y="185.517" width="8.966" height="8.966" />
    <rect x="312.069" y="185.517" width="8.966" height="8.966" />
    <rect x="321.034" y="185.517" width="8.966" height="8.966" />
    <rect x="70.000" y="194.483" width="8.966" height="8.966" />
    <rect x="105.862" y="194.483" width="8.966" height="8.966" />
    <rect x="114.828" y="194.483" width="8.966" height="8.966" />
    <rect x="123.793" y="194.483" width="8.966" height="8.966" />
    <rect x="150.690" y="194.483" width="8.966" height="8.966" />
    <rect x="186.552" y="194.483" width="8.966" height="8.966" />
    <rect x="195.517" y="194.483" width="8.966" height="8.966" />
    <rect x="204.483" y="194.483" width="8.966" height="8.966" />
    <rect x="231.379" y="194.483" width="8.966" height="8.966" />
    <rect x="249.310" y="194.483" width="8.966" height="8.966" />
    <rect x="258.276" y="194.483" width="8.966" height="8.966" />
    <rect x="276.207" y="194.483" width="8.966" height="8.966" />
    <rect x="294.138" y="194.483" width="8.966" height="8.966" />
    <rect x="70.000" y="203.448" width="8.966" height="8.966" />
    <rect x="78.966" y="203.448" width="8.966" height="8.966" />
    <rect x="96.897" y="203.448" width="8.966" height="8.966" />
    <rect x="123.793" y="203.448" width="8.966" height="8.966" />
    <rect x="132.759" y="203.448" width="8.966" height="8.966" />
    <rect x="141.724" y="203.448" width="8.966" height="8.966" />
    <rect x="159.655" y="203.448" width="8.966" height="8.966" />
    <rect x="177.586" y="203.448" width="8.966" height="8.966" />
    <rect x="222.414" y="203.448" width="8.966" height="8.966" />
    <rect x="267.241" y="203.448" width="8.966" height="8.966" />
    <rect x="303.103" y="203.448" width="8.966" height="8.966" />
    <rect x="312.069" y="203.448" width="8.966" height="8.966" />
    <rect x="87.931" y="212.414" width="8.966" height="8.966" />
    <rect x="123.793" y="212.414" width="8.966" height="8.966" />
    <rect x="141.724" y="212.414" width="8.966" height="8.966" />
    <rect x="150.690" y="212.414" width="8.966" height="8.966" />
    <rect x="168.621" y="212.414" width="8.966" height="8.966" />
    <rect x="177.586" y="212.414" width="8.966" height="8.966" />
    <rect x="186.552" y="212.414" width="8.966" height="8.966" />
    <rect x="195.517" y="212.414" width="8.966" height="8.966" />
    <rect x="213.448" y="212.414" width="8.966" height="8.966" />
    <rect x="231.379" y="212.414" width="8.966" height="8.966" />
    <rect x="240.345" y="212.414" width="8.966" height="8.966" />
    <rect x="258.276" y="212.414" width="8.966" height="8.966" />
    <rect x="267.241" y="212.414" width="8.966" height="8.966" />
    <rect x="276.207" y="212.414" width="8.966" height="8.966" />
    <rect x="285.172" y="212.414" width="8.966" height="8.966" />
    <rect x="294.138" y="212.414" width="8.966" height="8.966" />
    <rect x="312.069" y="212.414" width="8.966" height="8.966" />
    <rect x="70.000" y="221.379" width="8.966" height="8.966" />
    <rect x="78.966" y="221.379" width="8.966" height="8.966" />
    <rect x="87.931" y="221.379" width="8.966" height="8.966" />
    <rect x="96.897" y="221.379" width="8.966" height="8.966" />
    <rect x="105.862" y="221.379" width="8.966" height="8.966" />
    <rect x="114.828" y="221.379" width="8.966" height="8.966" />
    <rect x="168.621" y="221.379" width="8.966" height="8.966" />
    <rect x="177.586" y="221.379" width="8.966" height="8.966" />
    <rect x="186.552" y="221.379" width="8.966" height="8.966" />
    <rect x="195.517" y="221.379" width="8.966" height="8.966" />
    <rect x="213.448" y="221.379" width="8.966" height="8.966" />
    <rect x="222.414" y="221.379" width="8.966" height="8.966" />
    <rect x="231.379" y="221.379" width="8.966" height="8.966" />
    <rect x="240.345" y="221.379" width="8.966" height="8.966" />
    <rect x="249.310" y="221.379" width="8.966" height="8.966" />
    <rect x="267.241" y="221.379" width="8.966" height="8.966" />
    <rect x="276.207" y="221.379" width="8.966" height="8.966" />
    <rect x="303.103" y="221.379" width="8.966" height="8.966" />
    <rect x="321.034" y="221.379" width="8.966" height="8.966" />
    <rect x="123.793" y="230.345" width="8.966" height="8.966" />
    <rect x="132.759" y="230.345" width="8.966" height="8.966" />
    <rect x="150.690" y="230.345" width="8.966" height="8.966" />
    <rect x="159.655" y="230.345" width="8.966" height="8.966" />
    <rect x="204.483" y="230.345" width="8.966" height="8.966" />
    <rect x="213.448" y="230.345" width="8.966" height="8.966" />
    <rect x="222.414" y="230.345" width="8.966" height="8.966" />
    <rect x="258.276" y="230.345" width="8.966" height="8.966" />
    <rect x="276.207" y="230.345" width="8.966" height="8.966" />
    <rect x="294.138" y="230.345" width="8.966" height="8.966" />
    <rect x="303.103" y="230.345" width="8.966" height="8.966" />
    <rect x="312.069" y="230.345" width="8.966" height="8.966" />
    <rect x="70.000" y="239.310" width="8.966" height="8.966" />
    <rect x="78.966" y="239.310" width="8.966" height="8.966" />
    <rect x="87.931" y="239.310" width="8.966" height="8.966" />
    <rect x="96.897" y="239.310" width="8.966" height="8.966" />
    <rect x="105.862" y="239.310" width="8.966" height="8.966" />
    <rect x="114.828" y="239.310" width="8.966" height="8.966" />
    <rect x="123.793" y="239.310" width="8.966" height="8.966" />
    <rect x="141.724" y="239.310" width="8.966" height="8.966" />
    <rect x="150.690" y="239.310" width="8.966" height="8.966" />
    <rect x="168.621" y="239.310" width="8.966" height="8.966" />
    <rect x="177.586" y="239.310" width="8.966" height="8.966" />
    <rect x="195.517" y="239.310" width="8.966" height="8.966" />
    <rect x="204.483" y="239.310" width="8.966" height="8.966" />
    <rect x="222.414" y="239.310" width="8.966" height="8.966" />
    <rect x="231.379" y="239.310" width="8.966" height="8.966" />
    <rect x="249.310" y="239.310" width="8.966" height="8.966" />
    <rect x="258.276" y="239.310" width="8.966" height="8.966" />
    <rect x="267.241" y="239.310" width="8.966" height="8.966" />
    <rect x="276.207" y="239.310" width="8.966" height="8.966" />
    <rect x="285.172" y="239.310" width="8.966" height="8.966" />
    <rect x="294.138" y="239.310" width="8.966" height="8.966" />
    <rect x="321.034" y="239.310" width="8.966" height="8.966" />
    <rect x="70.000" y="248.276" width="8.966" height="8.966" />
    <rect x="123.793" y="248.276" width="8.966" height="8.966" />
    <rect x="150.690" y="248.276" width="8.966" height="8.966" />
    <rect x="159.655" y="248.276" width="8.966" height="8.966" />
    <rect x="186.552" y="248.276" width="8.966" height="8.966" />
    <rect x="204.483" y="248.276" width="8.966" height="8.966" />
    <rect x="213.448" y="248.276" width="8.966" height="8.966" />
    <rect x="249.310" y="248.276" width="8.966" height="8.966" />
    <rect x="294.138" y="248.276" width="8.966" height="8.966" />
    <rect x="303.103" y="248.276" width="8.966" height="8.966" />
    <rect x="312.069" y="248.276" width="8.966" height="8.966" />
    <rect x="70.000" y="257.241" width="8.966" height="8.966" />
    <rect x="87.931" y="257.241" width="8.966" height="8.966" />
    <rect x="96.897" y="257.241" width="8.966" height="8.966" />
    <rect x="105.862" y="257.241" width="8.966" height="8.966" />
    <rect x="123.793" y="257.241" width="8.966" height="8.966" />
    <rect x="141.724" y="257.241" width="8.966" height="8.966" />
    <rect x="168.621" y="257.241" width="8.966" height="8.966" />
    <rect x="177.586" y="257.241" width="8.966" height="8.966" />
    <rect x="186.552" y="257.241" width="8.966" height="8.966" />
    <rect x="204.483" y="257.241" width="8.966" height="8.966" />
    <rect x="222.414" y="257.241" width="8.966" height="8.966" />
    <rect x="231.379" y="257.241" width="8.966" height="8.966" />
    <rect x="249.310" y="257.241" width="8.966" height="8.966" />
    <rect x="258.276" y="257.241" width="8.966" height="8.966" />
    <rect x="267.241" y="257.241" width="8.966" height="8.966" />
    <rect x="276.207" y="257.241" width="8.966" height="8.966" />
    <rect x="285.172" y="257.241" width="8.966" height="8.966" />
    <rect x="70.000" y="266.207" width="8.966" height="8.966" />
    <rect x="87.931" y="266.207" width="8.966" height="8.966" />
    <rect x="96.897" y="266.207" width="8.966" height="8.966" />
    <rect x="105.862" y="266.207" width="8.966" height="8.966" />
    <rect x="123.793" y="266.207" width="8.966" height="8.966" />
    <rect x="150.690" y="266.207" width="8.966" height="8.966" />
    <rect x="159.655" y="266.207" width="8.966" height="8.966" />
    <rect x="186.552" y="266.207" width="8.966" height="8.966" />
    <rect x="195.517" y="266.207" width="8.966" height="8.966" />
    <rect x="204.483" y="266.207" width="8.966" height="8.966" />
    <rect x="222.414" y="266.207" width="8.966" height="8.966" />
    <rect x="249.310" y="266.207" width="8.966" height="8.966" />
    <rect x="285.172" y="266.207" width="8.966" height="8.966" />
    <rect x="312.069" y="266.207" width="8.966" height="8.966" />
    <rect x="321.034" y="266.207" width="8.966" height="8.966" />
    <rect x="70.000" y="275.172" width="8.966" height="8.966" />
    <rect x="87.931" y="275.172" width="8.966" height="8.966" />
    <rect x="96.897" y="275.172" width="8.966" height="8.966" />
    <rect x="105.862" y="275.172" width="8.966" height="8.966" />
    <rect x="123.793" y="275.172" width="8.966" height="8.966" />
    <rect x="141.724" y="275.172" width="8.966" height="8.966" />
    <rect x="150.690" y="275.172" width="8.966" height="8.966" />
    <rect x="159.655" y="275.172" width="8.966" height="8.966" />
    <rect x="177.586" y="275.172" width="8.966" height="8.966" />
    <rect x="186.552" y="275.172" width="8.966" height="8.966" />
    <rect x="195.517" y="275.172" width="8.966" height="8.966" />
    <rect x="213.448" y="275.172" width="8.966" height="8.966" />
    <rect x="222.414" y="275.172" width="8.966" height="8.966" />
    <rect x="231.379" y="275.172" width="8.966" height="8.966" />
    <rect x="249.310" y="275.172" width="8.966" height="8.966" />
    <rect x="267.241" y="275.172" width="8.966" height="8.966" />
    <rect x="285.172" y="275.172" width="8.966" height="8.966" />
    <rect x="294.138" y="275.172" width="8.966" height="8.966" />
    <rect x="303.103" y="275.172" width="8.966" height="8.966" />
    <rect x="321.034" y="275.172" width="8.966" height="8.966" />
    <rect x="70.000" y="284.138" width="8.966" height="8.966" />
    <rect x="123.793" y="284.138" width="8.966" height="8.966" />
    <rect x="168.621" y="284.138" width="8.966" height="8.966" />
    <rect x="204.483" y="284.138" width="8.966" height="8.966" />
    <rect x="222.414" y="284.138" width="8.966" height="8.966" />
    <rect x="240.345" y="284.138" width="8.966" height="8.966" />
    <rect x="249.310" y="284.138" width="8.966" height="8.966" />
    <rect x="294.138" y="284.138" width="8.966" height="8.966" />
    <rect x="312.069" y="284.138" width="8.966" height="8.966" />
    <rect x="70.000" y="293.103" width="8.966" height="8.966" />
    <rect x="78.966" y="293.103" width="8.966" height="8.966" />
    <rect x="87.931" y="293.103" width="8.966" height="8.966" />
    <rect x="96.897" y="293.103" width="8.966" height="8.966" />
    <rect x="105.862" y="293.103" width="8.966" height="8.966" />
    <rect x="114.828" y="293.103" width="8.966" height="8.966" />
    <rect x="123.793" y="293.103" width="8.966" height="8.966" />
    <rect x="141.724" y="293.103" width="8.966" height="8.966" />
    <rect x="150.690" y="293.103" width="8.966" height="8.966" />
    <rect x="168.621" y="293.103" width="8.966" height="8.966" />
    <rect x="186.552" y="293.103" width="8.966" height="8.966" />
    <rect x="195.517" y="293.103" width="8.966" height="8.966" />
    <rect x="204.483" y="293.103" width="8.966" height="8.966" />
    <rect x="222.414" y="293.103" width="8.966" height="8.966" />
    <rect x="231.379" y="293.103" width="8.966" height="8.966" />
    <rect x="240.345" y="293.103" width="8.966" height="8.966" />
    <rect x="249.310" y="293.103" width="8.966" height="8.966" />
    <rect x="258.276" y="293.103" width="8.966" height="8.966" />
    <rect x="267.241" y="293.103" width="8.966" height="8.966" />
    <rect x="276.207" y="293.103" width="8.966" height="8.966" />
    <rect x="285.172" y="293.103" width="8.966" height="8.966" />
    <rect x="294.138" y="293.103" width="8.966" height="8.966" />
    <rect x="303.103" y="293.103" width="8.966" height="8.966" />
    <rect x="321.034" y="293.103" width="8.966" height="8.966" />
    <rect x="141.724" y="302.069" width="8.966" height="8.966" />
    <rect x="159.655" y="302.069" width="8.966" height="8.966" />
    <rect x="177.586" y="302.069" width="8.966" height="8.966" />
    <rect x="249.310" y="302.069" width="8.966" height="8.966" />
    <rect x="258.276" y="302.069" width="8.966" height="8.966" />
    <rect x="276.207" y="302.069" width="8.966" height="8.966" />
    <rect x="294.138" y="302.069" width="8.966" height="8.966" />
    <rect x="303.103" y="302.069" width="8.966" height="8.966" />
    <rect x="312.069" y="302.069" width="8.966" height="8.966" />
    <rect x="70.000" y="311.034" width="8.966" height="8.966" />
    <rect x="78.966" y="311.034" width="8.966" height="8.966" />
    <rect x="87.931" y="311.034" width="8.966" height="8.966" />
    <rect x="96.897" y="311.034" width="8.966" height="8.966" />
    <rect x="105.862" y="311.034" width="8.966" height="8.966" />
    <rect x="114.828" y="311.034" width="8.966" height="8.966" />
    <rect x="123.793" y="311.034" width="8.966" height="8.966" />
    <rect x="150.690" y="311.034" width="8.966" height="8.966" />
    <rect x="159.655" y="311.034" width="8.966" height="8.966" />
    <rect x="168.621" y="311.034" width="8.966" height="8.966" />
    <rect x="186.552" y="311.034" width="8.966" height="8.966" />
    <rect x="195.517" y="311.034" width="8.966" height="8.966" />
    <rect x="204.483" y="311.034" width="8.966" height="8.966" />
    <rect x="222.414" y="311.034" width="8.966" height="8.966" />
    <rect x="276.207" y="311.034" width="8.966" height="8.966" />
    <rect x="285.172" y="311.034" width="8.966" height="8.966" />
    <rect x="312.069" y="311.034" width="8.966" height="8.966" />
  </g>
</svg>
